<svg xmlns="http://www.w3.org/2000/svg" viewBox="0 0 100 150"><title>favicon</title><g id="Layer_2" data-name="Layer 2"><g id="Layer_1-2" data-name="Layer 1"><rect x="50.5" y="0.5" width="49" height="49"/><path d="M99,1V49H51V1H99m1-1H50V50h50V0Z"/><rect x="0.5" y="0.5" width="49" height="49"/><path d="M49,1V49H1V1H49m1-1H0V50H50V0Z"/><rect x="0.5" y="50.5" width="49" height="49"/><path d="M49,51V99H1V51H49m1-1H0v50H50V50Z"/><rect x="50.5" y="100.5" width="49" height="49"/><path d="M99,101v48H51V101H99m1-1H50v50h50V100Z"/></g></g></svg>