<svg xmlns="http://www.w3.org/2000/svg" viewBox="0 0 55.69 58.22"><title>favicon</title><g id="Layer_2" data-name="Layer 2"><g id="Layer_1-2" data-name="Layer 1"><path d="M19.69,40.78H34.38a18,18,0,0,0,7.21-1.49,19.2,19.2,0,0,0,6-4,18.77,18.77,0,0,0,4.06-6.18,20,20,0,0,0,1.52-7.76A17.92,17.92,0,0,0,50.59,12a19.42,19.42,0,0,0-6.91-6.92,17.79,17.79,0,0,0-9.3-2.59H2.53V58.22H0V0H34.38A20.23,20.23,0,0,1,44.93,2.94a22.17,22.17,0,0,1,7.84,7.85A20.33,20.33,0,0,1,55.69,21.3,24,24,0,0,1,54,30.5a19.71,19.71,0,0,1-4.64,7,20.78,20.78,0,0,1-6.78,4.3,22,22,0,0,1-8.16,1.53H19.69Zm0-5.06H34.38a13.37,13.37,0,0,0,11.8-6.89,14.85,14.85,0,0,0,1.91-7.53A13.16,13.16,0,0,0,44,11.74a13.12,13.12,0,0,0-9.58-4.15H7.59V58.22H5.06V5.06H34.38a15.37,15.37,0,0,1,8,2.25,17.07,17.07,0,0,1,6,6,15.39,15.39,0,0,1,2.24,8A17.31,17.31,0,0,1,48.38,30a16.26,16.26,0,0,1-6,6.08,15.71,15.71,0,0,1-8,2.16H19.69Zm0-5.06H34.38a8.48,8.48,0,0,0,6.14-2.45A9.21,9.21,0,0,0,43,21.3a8.3,8.3,0,0,0-2.64-6,8.23,8.23,0,0,0-6-2.65H12.66V58.22H10.13V10.13H34.38a10.64,10.64,0,0,1,7.81,3.41,10.73,10.73,0,0,1,3.37,7.76,11.65,11.65,0,0,1-3.27,8.64,10.82,10.82,0,0,1-7.91,3.25H19.69Zm-2,27.56H15.19v-43H34.38A6.22,6.22,0,0,1,40.5,21.3q0,6.82-6.12,6.83H19.69V25.59H34.38A3.53,3.53,0,0,0,37,24.64,4.66,4.66,0,0,0,38,21.3a3.44,3.44,0,0,0-1-2.56,3.49,3.49,0,0,0-2.55-1H17.72Z"/></g></g></svg>